<svg xmlns="http://www.w3.org/2000/svg" xmlns:xlink="http://www.w3.org/1999/xlink" height="20px" width="20px" viewBox="0 0 20 20">
                        
                        
                        
                        
                        <path fill="#8e8e8e" d="M 19.6 5.2 c -0.1 -0.4 -0.3 -0.8 -0.6 -1.1 c -0.3 -0.3 -0.7 -0.5 -1.1 -0.7 C 16.2 3 10 3 10 3 S 3.8 3 2.2 3.4 C 1.8 3.5 1.4 3.8 1.1 4.1 C 0.8 4.4 0.5 4.8 0.4 5.2 C 0 6.8 0 10 0 10 s 0 3.3 0.4 4.8 c 0.1 0.4 0.3 0.8 0.6 1.1 c 0.3 0.3 0.7 0.5 1.1 0.7 c 1.6 0.4 7.8 0.4 7.8 0.4 s 6.2 0 7.8 -0.4 c 0.4 -0.1 0.8 -0.3 1.1 -0.7 c 0.3 -0.3 0.5 -0.7 0.6 -1.1 C 20 13.3 20 10 20 10 S 20 6.8 19.6 5.2 z"></path>
                        <path fill="#fff" d="M 8 13 l 5.2 -3 L 8 7.1 V 13 z"></path>
                        
                        
                        
                        
                        
                  
                    </svg>