<svg xmlns="http://www.w3.org/2000/svg" xmlns:xlink="http://www.w3.org/1999/xlink" height="20px" width="20px" viewBox="0 0 20 20">
                        
                        
                        <path fill="#8e8e8e" d="M2,0h16c1.1,0,2,0.9,2,2v16c0,1.1-0.9,2-2,2H2c-1.1,0-2-0.9-2-2V2C0,0.9,0.9,0,2,0z"></path><path fill="#fff" d="M6.7,15.8H4.2V6.7h2.5V15.8z M16.7,15.8h-2.5v-4.7c0-2.8-3.3-2.6-3.3,0v4.7H8.3V6.7h2.5v1.5c1.2-2.2,5.8-2.3,5.8,2.1V15.8z"></path><circle fill="#fff" cx="5.5" cy="4.13" r="1.5"></circle>
                        
                        
                        
                        
                        
                        
                        
                  
                    </svg>