<svg xmlns="http://www.w3.org/2000/svg" xmlns:xlink="http://www.w3.org/1999/xlink" height="20px" width="20px" viewBox="0 0 20 20">
                        <circle fill="#8e8e8e" r="10" cy="10" cx="10"></circle><path fill="#fff" d="M 13.9 12.9 l 0.4 -2.9 l -2.8 0 l 0 -1.9 c 0 -0.8 0.4 -1.6 1.6 -1.6 l 1.3 0 l 0 -2.5 c 0 0 -1.1 -0.2 -2.2 -0.2 c -2.3 0 -3.8 1.4 -3.8 3.9 l 0 2.2 l -2.5 0 l 0 2.9 l 2.5 0 l 0 7 c 0.5 0.1 1 0.1 1.6 0.1 c 0.5 0 1.1 0 1.6 -0.1 l 0 -7 l 2.3 0 z"></path>
                        
                        
                        
                        
                        
                        
                        
                        
                        
                  
                    </svg>